<?xml version="1.0" encoding="utf-8"?>
<!-- Uploaded to: SVG Repo, www.svgrepo.com, Generator: SVG Repo Mixer Tools -->
<svg width="800px" height="800px" viewBox="0 0 1024 1024" class="icon"  version="1.1" xmlns="http://www.w3.org/2000/svg"><path d="M744.127127 656.563954v115.727888H281.407387v-115.727888h357.158003z" fill="#FF4893" /><path d="M575.842153 656.563954h-188.873029V40.616653l251.596266 231.35987v384.587431z" fill="#5FCEFF" /><path d="M446.974993 841.312978v-69.021136h128.86716v208.214293h-128.86716v-69.244919z" fill="#FFB578" /><path d="M638.56539 678.942275a22.378321 22.378321 0 0 1-22.378321-22.378321V281.800606l-206.839624-190.202941v564.966289a22.378321 22.378321 0 1 1-44.756642 0V40.616653a22.378321 22.378321 0 0 1 37.528444-16.473642l251.596266 231.359871a22.384715 22.384715 0 0 1 7.231395 16.473641v384.587431a22.381518 22.381518 0 0 1-22.381518 22.378321z" fill="#4F46A3" /><path d="M744.127127 794.670163h-168.288171a22.378321 22.378321 0 1 1 0-44.756642h145.90985v-70.971246H303.785708v70.971246h143.189285a22.378321 22.378321 0 1 1 0 44.756642h-165.567606a22.378321 22.378321 0 0 1-22.378321-22.378321v-115.727888a22.378321 22.378321 0 0 1 22.378321-22.378321h462.71974a22.378321 22.378321 0 0 1 22.378321 22.378321v115.727888a22.378321 22.378321 0 0 1-22.378321 22.378321z" fill="#4F46A3" /><path d="M575.842153 1002.884456h-128.86716a22.378321 22.378321 0 0 1-22.378321-22.378321v-208.214293a22.378321 22.378321 0 0 1 22.378321-22.378321h128.86716a22.378321 22.378321 0 0 1 22.378321 22.378321v208.214293a22.378321 22.378321 0 0 1-22.378321 22.378321z m-106.488839-44.756642h84.110518v-163.457651h-84.110518v163.457651zM575.842153 678.942275a22.378321 22.378321 0 0 1-22.378321-22.378321v-327.011208a22.378321 22.378321 0 1 1 44.756642 0v327.011208a22.378321 22.378321 0 0 1-22.378321 22.378321z" fill="#4F46A3" /><path d="M510.976991 863.691299h-64.001998a22.378321 22.378321 0 1 1 0-44.756642h64.001998a22.378321 22.378321 0 1 1 0 44.756642zM510.976991 933.639537h-64.001998a22.378321 22.378321 0 1 1 0-44.756642h64.001998a22.378321 22.378321 0 1 1 0 44.756642z" fill="#4F46A3" /></svg>